<svg xmlns="http://www.w3.org/2000/svg" xmlns:xlink="http://www.w3.org/1999/xlink" version="1.1" id="Layer_1" x="0" y="0" viewBox="0 0 581 581" xml:space="preserve" enable-background="new 0 0 581 581"><style type="text/css">
	.st0{fill:#FEFEFE;}
	.st1{fill:#FCC947;}
	.st2{fill:#F8B600;}
	.st3{fill:#F9BC16;}
	.st4{fill:#302C3B;}
	.st5{fill:#FDFDFD;}
	.st6{fill:#312D3B;}
	.st7{fill:#FEE7B9;}
</style><path class="st0" d="M295.5 586.6c-93 0-185.9-0.2-278.9 0.2 -10.6 0-14.3-1.4-14.3-13.5 0.5-186.7 0.5-373.4 0-560C2.3 1.9 5.4 0.8 15.4 0.9c186.7 0.3 373.4 0.4 560-0.2 13.4 0 12.9 5.5 12.9 14.9 -0.2 185.9-0.3 371.8 0.2 557.8 0 12-3.5 13.6-14.2 13.6C481.4 586.5 388.4 586.6 295.5 586.6z"/><path class="st1" d="M109.8 496.2C28.5 418.9 1.3 324.9 33.3 218.3 65.4 111.6 140 47.2 250.6 28.1c84.1-14.6 157.9 9.6 222.8 63.9 7.6 6.4 13.7 13.7 19.1 21.9 4.3 6.8 9 13.4 13.8 19.8 60.3 92.7 47.7 227.3-29.6 316 -77.2 88.6-193.6 119.6-304.5 81.2 -15.2-5.2-28.9-12.9-42-21.9C123.6 504.6 117.7 498.7 109.8 496.2z"/><path class="st2" d="M129.7 505c96 50.3 191.6 51.3 283.3-8.2 87.3-56.6 128.4-139.9 124.7-243.8 -1.5-42.6-14.5-83-35.7-120.3 -1.6-4.7 0.4-5.8 4.6-4.6 86.3 104.1 77.2 263-20.6 360.9 -97.8 97.9-256.8 106.9-360.9 20.6C123.9 505.4 125 503.4 129.7 505z"/><path class="st3" d="M506.6 128.1c-1.5 1.5-3.1 3.1-4.6 4.6 -6-4.8-8.6-11.4-9.5-18.9C499.9 116 503.4 121.9 506.6 128.1z"/><path class="st3" d="M129.7 505c-1.5 1.5-3.1 3.1-4.6 4.6 -6.6-2.8-11.3-7.7-15.4-13.4C117.9 495.8 124.5 498.7 129.7 505z"/><path class="st4" d="M330.2 300.9c16.3-72.5 117.9-101.8 157.6-69 -16 7.4-22.2 18.5-24.7 37.4 -6.2 47-56.9 67.3-91.7 36.5C356.1 292.2 343.4 304.9 330.2 300.9z"/><path class="st4" d="M98.4 231.9c56.2-34 150.8 8 153.8 68.3 -15.7-3.4-28.4-1-42.5 9.9 -32.3 25-81.4 2.3-86.6-40.9C120.8 250.2 114.3 239.3 98.4 231.9z"/><path class="st5" d="M330.2 300.9c18.5-15.6 32.6-12.7 49.8 5.3 13 13.6 33.7 11.3 51 2.2 18.2-9.6 32-27 27.2-45.6 -8.1-31.6 12.8-27.6 29.7-30.9 15.1 31 6.3 68.6-22.2 94.8 -29.5 27.1-72.5 31.9-106.1 10.7C345.9 328.9 330.2 320.9 330.2 300.9z"/><path class="st5" d="M98.4 231.9c4.4 0.7 8.9 1.6 13.3 2 13.2 1.3 20.9 3.7 16.8 21.5 -5.3 22.5 5.9 41.2 26.1 52.4 20.3 11.3 43.6 11.5 57.9-6.1 15.6-19.2 26.1-13.7 39.8-1.6 5.9 4.1 4.1 8.8 1.2 13.8 -19.1 33.2-75 46.2-113.6 26.3C98.8 319.1 80.2 270.3 98.4 231.9z"/><path class="st6" d="M293.6 385.8c40.1 1 67.4 22.3 87 55.6 2.8 4.7 5.6 9.8 0.1 14.1 -4.7 3.6-8.4-0.8-11.8-3.3 -50.8-37.7-101.4-37.5-152 0.3 -3.4 2.5-7.2 6.9-11.8 2.7 -5.1-4.6-2-9.6 0.7-14.2C225.7 407.7 253.1 386.6 293.6 385.8z"/><path class="st7" d="M235.7 55.4c-67.3 30.4-118.8 80.4-171 138.6C75 122.3 171.1 46.9 235.7 55.4z"/></svg>