<?xml version="1.0" encoding="utf-8"?>
<!-- Generator: Adobe Illustrator 21.1.0, SVG Export Plug-In . SVG Version: 6.00 Build 0)  -->
<svg version="1.1" id="Layer_1" xmlns="http://www.w3.org/2000/svg" xmlns:xlink="http://www.w3.org/1999/xlink" x="0px" y="0px"
	 viewBox="0 0 581 581" style="enable-background:new 0 0 581 581;" xml:space="preserve">
<style type="text/css">
	.st0{fill:#FEFEFE;}
	.st1{fill:#FCC947;}
	.st2{fill:#F8B600;}
	.st3{fill:#F9BC12;}
	.st4{fill:#302C3B;}
	.st5{fill:#312C3B;}
	.st6{fill:#FEE7B9;}
</style>
<g>
	<g>
		<path class="st0" d="M295.5,586.6c-93,0-185.9-0.2-278.9,0.2c-10.6,0-14.3-1.4-14.3-13.5c0.5-186.7,0.5-373.4,0-560
			C2.3,1.9,5.4,0.8,15.4,0.9c186.7,0.3,373.4,0.4,560-0.2c13.4,0,12.9,5.5,12.9,14.9c-0.2,185.9-0.3,371.8,0.2,557.8
			c0,12-3.5,13.6-14.2,13.6C481.4,586.5,388.4,586.6,295.5,586.6z"/>
		<path class="st1" d="M109.8,496.2C28.4,418.9,1.3,324.9,33.3,218.3C65.4,111.6,140,47.2,250.6,28.1c84.1-14.5,158,9.5,222.8,63.9
			c7.6,6.4,13.8,13.6,19.1,21.8c3.3,6.2,8.8,10.8,12.4,16.8c66.7,101.7,44.7,247.8-42.7,335c-87.2,87-233.4,109-335.1,41.9
			C121.2,504.2,117,497.8,109.8,496.2z"/>
		<path class="st2" d="M125.2,504.5c33.4,13.4,65.9,28.2,102.6,33.4c70.1,10,134.2-4.7,191.1-44.5c81-56.8,121.4-136.3,119-235.8
			c-0.8-35.6-9.5-70-24.7-102.5c-4.1-8.8-7.8-17.9-11.6-26.9c1.7-2,3.3-2,5-0.1c86.7,103.7,77.2,264.1-21.5,361.6
			c-98.5,97.3-256.8,106.1-360,19.9c-1.4-1.1-1.8-2.3-1.4-3.4C124.3,505.1,124.8,504.5,125.2,504.5z"/>
		<path class="st3" d="M506.6,128.1c-1.7,0-3.4,0.1-5,0.1c-6.2-2.8-8.8-7.8-9.1-14.3C499.8,116,503.4,121.9,506.6,128.1z"/>
		<path class="st3" d="M125.2,504.5c0,1.7-0.1,3.4-0.1,5c-6.6-2.8-11.3-7.7-15.3-13.4C116.9,495.5,122.1,498,125.2,504.5z"/>
		<path class="st4" d="M428.8,429.9c0.7,7-0.1,11.5-4.7,13.9c-5.2,2.7-8.6-1.1-11.4-4.5c-4.8-5.8-8.8-12.3-13.6-18.1
			c-56.9-70.1-155-70-212,0.2c-3.3,4.1-6.1,8.7-9.5,12.7c-4.1,4.8-6.8,13.7-15.4,9.4c-7.7-3.8-5.3-11.7-3.5-18.3
			c14-53.1,48.5-86.4,100.9-100c73-18.9,148.9,25.5,166.9,95.8C427.3,424.8,428.4,428.4,428.8,429.9z"/>
		<path class="st5" d="M187.9,273.8c-24.8-0.4-44.2-19.9-44.4-44.6c-0.2-24.8,21.5-46.3,46.1-45.8c23.9,0.6,44.3,21.3,44.4,45.3
			C234.2,254.2,213.7,274.2,187.9,273.8z"/>
		<path class="st5" d="M398.2,273.8c-25.8,0.3-46.2-19.8-45.9-45.3c0.2-24,20.7-44.6,44.6-45.1c24.6-0.5,46.2,21.1,45.9,46
			C442.6,254,423,273.4,398.2,273.8z"/>
		<path class="st6" d="M241,54.6c-71.7,31.2-123.9,80.8-173.6,133.5C77.8,110.3,186.8,45.9,241,54.6z"/>
	</g>
</g>
</svg>
