<?xml version="1.0" encoding="utf-8"?>
<!-- Generator: Adobe Illustrator 21.1.0, SVG Export Plug-In . SVG Version: 6.00 Build 0)  -->
<svg version="1.1" id="Layer_1" xmlns="http://www.w3.org/2000/svg" xmlns:xlink="http://www.w3.org/1999/xlink" x="0px" y="0px"
	 viewBox="0 0 581 581" style="enable-background:new 0 0 581 581;" xml:space="preserve">
<style type="text/css">
	.st0{fill:#FEFEFE;}
	.st1{fill:#FCC947;}
	.st2{fill:#F8B600;}
	.st3{fill:#F9BB10;}
	.st4{fill:#302C3B;}
	.st5{fill:#FEE7B9;}
</style>
<g>
	<g>
		<path class="st0" d="M295.5,586.6c-93,0-185.9-0.2-278.9,0.2c-10.6,0-14.3-1.4-14.3-13.5c0.5-186.7,0.5-373.4,0-560
			C2.3,1.9,5.4,0.8,15.4,0.9c186.7,0.3,373.4,0.4,560-0.2c13.4,0,12.9,5.5,12.9,14.9c-0.2,185.9-0.3,371.8,0.2,557.8
			c0,12-3.5,13.6-14.2,13.6C481.4,586.5,388.4,586.6,295.5,586.6z"/>
		<path class="st1" d="M109.8,496.2C28.5,418.9,1.2,324.9,33.3,218.3C65.4,111.6,140,47.2,250.6,28.1c84-14.5,158,9.5,222.8,63.9
			c7.6,6.4,13.9,13.6,19.1,21.8c3.3,6.2,8.8,10.8,12.4,16.8c66.7,101.7,44.7,247.9-42.6,335.1c-87.1,87-233.4,109-335.1,41.9
			C121.1,504.1,117,497.8,109.8,496.2z"/>
		<path class="st2" d="M125.2,504.6c33.4,13.4,65.9,28.2,102.6,33.4c70.1,10,134.1-4.7,191-44.6c81-56.8,121.4-136.3,119-235.8
			c-0.8-35.6-9.5-70-24.7-102.5c-4.1-8.8-7.7-17.9-11.6-26.9c1.6-2,3.3-2,5-0.1c86.7,104,77.2,264-21.5,361.6
			c-98.4,97.3-257.4,106.1-360,19.9c-1.4-1.1-1.9-2.2-1.4-3.3C124.3,505.1,124.8,504.6,125.2,504.6z"/>
		<path class="st3" d="M506.6,128.2c-1.7,0-3.3,0-5,0.1c-6.2-2.8-8.8-7.8-9.1-14.4C499.8,116,503.4,121.9,506.6,128.2z"/>
		<path class="st3" d="M125.2,504.6c0,1.7,0,3.3-0.1,5c-6.6-2.8-11.4-7.7-15.4-13.4C116.9,495.4,122.1,498,125.2,504.6z"/>
		<path class="st4" d="M176.5,296.1c-21.2,0-42.4-0.5-63.5,0.2c-13.7,0.5-19.4-5.3-19.4-18.5c0-13.4,6.3-18.4,19.7-18.2
			c42.3,0.6,84.7,0.5,127,0c12.8-0.2,18,5.5,18.2,17.4c0.2,12.6-4.2,19.8-18.5,19.3C218.8,295.6,197.6,296.1,176.5,296.1z"/>
		<path class="st4" d="M411.9,296.1c-21.9,0-43.9-0.5-65.8,0.2c-12.7,0.4-18.1-5.3-18.3-17.3c-0.2-12.5,4-19.6,18.4-19.4
			c43.1,0.6,86.2,0.4,129.3,0.1c13.3-0.1,17.2,7,17.2,18.4c0,11.5-4.1,18.5-17.3,18.2C454.2,295.7,433.1,296.1,411.9,296.1z"/>
		<path class="st4" d="M293,441.4c-21.2,0-42.4-0.5-63.5,0.2c-14.1,0.5-18.9-6.1-18.7-19c0.2-12,5-17.8,17.8-17.6
			c43.1,0.4,86.2,0.4,129.3,0c13-0.1,17.4,6,17.6,17.9c0.2,13.1-5,19.3-19,18.8C335.4,440.8,314.2,441.4,293,441.4z"/>
		<path class="st5" d="M62.8,198.2c11-74.4,105.6-150.9,178.8-143.6C167,86.7,113.5,137.6,62.8,198.2z"/>
	</g>
</g>
</svg>
