<?xml version="1.0" encoding="utf-8"?>
<!-- Generator: Adobe Illustrator 21.1.0, SVG Export Plug-In . SVG Version: 6.00 Build 0)  -->
<svg version="1.1" id="Layer_1" xmlns="http://www.w3.org/2000/svg" xmlns:xlink="http://www.w3.org/1999/xlink" x="0px" y="0px"
	 viewBox="0 0 581 581" style="enable-background:new 0 0 581 581;" xml:space="preserve">
<style type="text/css">
	.st0{fill:#FEFEFE;}
	.st1{fill:#FCC947;}
	.st2{fill:#F8B600;}
	.st3{fill:#F9BC16;}
	.st4{fill:#312D3B;}
	.st5{fill:#312C3B;}
	.st6{fill:#FEE7B9;}
</style>
<g>
	<g>
		<path class="st0" d="M295.5,586.6c-93,0-185.9-0.2-278.9,0.2c-10.6,0-14.3-1.4-14.3-13.5c0.5-186.7,0.5-373.4,0-560
			C2.3,1.9,5.4,0.8,15.4,0.9c186.7,0.3,373.4,0.4,560-0.2c13.4,0,12.9,5.5,12.9,14.9c-0.2,185.9-0.3,371.8,0.2,557.8
			c0,12-3.5,13.6-14.2,13.6C481.4,586.5,388.4,586.6,295.5,586.6z"/>
		<path class="st1" d="M109.7,496.2C28.6,418.9,1.2,324.9,33.3,218.3C65.4,111.6,140,47.3,250.6,28.1c84-14.6,157.9,9.5,222.8,63.9
			c7.6,6.4,13.8,13.6,19.1,21.8c4.3,6.8,9,13.4,13.9,19.9c59.3,91.1,46.5,231.7-27.7,314.7c-59.4,66.5-133.1,100.8-222.2,98.5
			c-44.9-1.2-88.4-11-126.2-37.8C123.6,504.6,117.7,498.7,109.7,496.2z"/>
		<path class="st2" d="M129.7,505c97.7,51.4,194.3,50.1,287.4-10.2c113.6-73.5,153.4-224.5,93-345.9c-2.7-5.4-5.4-10.8-8.1-16.2
			c-1.6-4.7,0.4-5.8,4.7-4.6c86.5,104.4,77,264.6-21.4,361.7c-98.6,97.3-256.2,105.9-360.1,19.8C123.9,505.4,125,503.4,129.7,505z"
			/>
		<path class="st3" d="M506.6,128.1c-1.6,1.5-3.1,3.1-4.7,4.6c-6.1-4.9-8.6-11.4-9.5-18.9C499.9,115.9,503.4,121.9,506.6,128.1z"/>
		<path class="st3" d="M129.7,505c-1.5,1.5-3.1,3.1-4.6,4.6c-6.6-2.8-11.4-7.6-15.4-13.4C117.8,495.8,124.5,498.7,129.7,505z"/>
		<path class="st4" d="M426.9,229c18.3-0.6,30.3,1.6,41.5,5.7c14.5,5.3,27.5,13,29.5,30.6c1.8,16.7-4.8,29.8-18.7,38.4
			c-15.3,9.5-31.5,9.3-46.9-0.5c-4.3-2.8-7.6-7.2-11.5-10.7c-8.3-7.4-4.1-25.3-16.3-26.3c-14.6-1.3-29.2,5.8-43,12
			c-7.3,3.3-15.4,14.6-22.7,2.1c-6.1-10.4,5.1-16,11-21.4C373.3,237.5,402.6,231.3,426.9,229z"/>
		<path class="st5" d="M187.8,228.2c7.4,1.3,18,2,28,5c18.1,5.4,34.5,14.5,34.5,36.3c-0.1,18.9-10.3,33.3-28.9,38.8
			c-20.1,6-36.3-0.9-49.9-17.1c-6.7-8-1.6-24.3-14.7-25.2c-13.2-0.9-26.1,5.6-38.9,10.1c-8.5,3-18.4,18.5-26.7,4.3
			c-7.3-12.5,7.5-19.6,15.6-25.9C129.4,236.9,156.5,230.8,187.8,228.2z"/>
		<path class="st4" d="M336.7,381.7c11.9,1.5,23.8,3.3,35.8,4.5c14.8,1.5,28.1,4.9,25.1,23.9c-2.8,18.2-16,19.4-30.9,16.7
			c-49.1-9-95.8,0.5-141.3,18.8c-6.3,2.5-12.1,6.2-18.2,9.1c-5.2,2.5-10.8,8.4-16.3,2.9c-6.3-6.4-0.7-12.6,3.4-17.8
			c23.3-29.3,55.8-43,90.7-51.4C301.8,384.5,319,381.4,336.7,381.7z"/>
		<path class="st6" d="M235.8,55c-69.1,32-122.1,82.8-171.8,141.3C68.5,128.6,162.5,51.7,235.8,55z"/>
	</g>
</g>
</svg>
