<?xml version="1.0" encoding="utf-8"?>
<!-- Generator: Adobe Illustrator 21.1.0, SVG Export Plug-In . SVG Version: 6.00 Build 0)  -->
<svg version="1.1" id="Layer_1" xmlns="http://www.w3.org/2000/svg" xmlns:xlink="http://www.w3.org/1999/xlink" x="0px" y="0px"
	 viewBox="0 0 581 581" style="enable-background:new 0 0 581 581;" xml:space="preserve">
<style type="text/css">
	.st0{fill:#FEFEFE;}
	.st1{fill:#FCC947;}
	.st2{fill:#F8B600;}
	.st3{fill:#F9BB11;}
	.st4{fill:#302C3B;}
	.st5{fill:#312D3B;}
	.st6{fill:#FEE7B9;}
</style>
<g>
	<g>
		<path class="st0" d="M295.5,586.6c-93,0-185.9-0.2-278.9,0.2c-10.6,0-14.3-1.4-14.3-13.5c0.5-186.7,0.5-373.4,0-560
			C2.3,1.9,5.4,0.8,15.4,0.9c186.7,0.3,373.4,0.4,560-0.2c13.4,0,12.9,5.5,12.9,14.9c-0.2,185.9-0.3,371.8,0.2,557.8
			c0,12-3.5,13.6-14.2,13.6C481.4,586.5,388.4,586.6,295.5,586.6z"/>
		<path class="st1" d="M109.8,496.2C28.4,418.9,1.2,324.9,33.3,218.3C65.4,111.6,140,47.2,250.6,28.1c84-14.5,158,9.5,222.8,63.9
			c7.6,6.4,13.8,13.6,19.1,21.8c3.3,6.2,8.8,10.8,12.4,16.8c69,105,40.3,252.7-42.4,335.3C380,548.2,232.2,577,127.2,507.6
			C121.2,504.2,117,497.9,109.8,496.2z"/>
		<path class="st2" d="M125.2,504.6c34.1,13.9,67.4,28.7,104.8,33.7c78,10.3,147.3-9.6,207.1-58.1
			c69.7-56.7,103.3-132.3,100.7-222.5c-1-35.6-9.5-70-24.7-102.5c-4.1-8.8-7.8-17.9-11.6-26.9c1.6-1.9,3.3-2.1,5-0.1
			c86.6,103.6,77,264.6-21.4,361.7c-98.6,97.2-257,105.9-360.1,19.8c-1.4-1.1-1.9-2.3-1.4-3.4C124.3,505.1,124.8,504.6,125.2,504.6z
			"/>
		<path class="st3" d="M506.6,128.2c-1.7,0-3.3,0.1-5,0.1c-6.2-2.8-8.8-7.8-9.1-14.4C499.9,115.9,503.4,121.9,506.6,128.2z"/>
		<path class="st3" d="M125.2,504.6c0,1.7-0.1,3.3-0.1,5c-6.5-2.8-11.4-7.5-15.3-13.4C116.9,495.4,122.1,498,125.2,504.6z"/>
		<path class="st4" d="M293.2,386.9c35.5,0,70.9,0.4,106.4-0.2c12.7-0.2,20.3,3.4,20.6,17.3c0.4,14.5-6.3,19.6-20.8,19.4
			c-70.9-0.5-141.8-0.4-212.7,0c-12.7,0.1-20.3-3.4-20.6-17.3c-0.4-14.5,6.3-19.7,20.8-19.5C222.3,387.4,257.8,386.9,293.2,386.9z"
			/>
		<path class="st5" d="M234,255.9c0.1,25.6-20.3,45.5-46.1,45.1c-24.8-0.4-44.2-19.9-44.4-44.6c-0.2-24.8,21.6-46.4,46.1-45.8
			C213.5,211.2,233.9,231.9,234,255.9z"/>
		<path class="st5" d="M396.4,301c-24.8-0.5-44.1-20.1-44.2-44.8c0-24.8,21.8-46.3,46.3-45.6c23.9,0.7,44.2,21.5,44.2,45.5
			C442.8,281.6,422.2,301.5,396.4,301z"/>
		<path class="st6" d="M66.9,187.5c21.4-75.4,98.3-135,169.7-132.9C169.5,85.5,117.3,135.1,66.9,187.5z"/>
	</g>
</g>
</svg>
