<?xml version="1.0" encoding="utf-8"?>
<!-- Generator: Adobe Illustrator 21.1.0, SVG Export Plug-In . SVG Version: 6.00 Build 0)  -->
<svg version="1.1" id="Layer_1" xmlns="http://www.w3.org/2000/svg" xmlns:xlink="http://www.w3.org/1999/xlink" x="0px" y="0px"
	 viewBox="0 0 581 581" style="enable-background:new 0 0 581 581;" xml:space="preserve">
<style type="text/css">
	.st0{fill:#FEFEFE;}
	.st1{fill:#FE4D4D;}
	.st2{fill:#DF3636;}
	.st3{fill:#E83F3F;}
	.st4{fill:#1B1626;}
	.st5{fill:#FDFDFD;}
	.st6{fill:#F79786;}
</style>
<g>
	<g>
		<path class="st0" d="M295.5,586.6c-93,0-185.9-0.2-278.9,0.2c-10.6,0-14.3-1.4-14.3-13.5c0.5-186.7,0.5-373.4,0-560
			C2.3,1.9,5.4,0.8,15.4,0.9c186.7,0.3,373.4,0.4,560-0.2c13.4,0,12.9,5.5,12.9,14.8c-0.2,185.9-0.3,371.8,0.2,557.8
			c0,12-3.5,13.6-14.2,13.6C481.4,586.5,388.4,586.6,295.5,586.6z"/>
		<path class="st1" d="M109.8,496.4C23.4,415.2-2.7,296.8,42.4,190.2C87,84.8,191.1,18.4,307.3,24.6c73.4,3.9,137.1,31.6,185.4,89.4
			c4.2,6.8,8.9,13.4,13.7,19.8c59.2,90.8,46.3,231.6-27.8,314.6c-59.4,66.5-133.1,100.8-222.1,98.5c-44.9-1.1-88.4-11-126.2-37.8
			C123.6,504.6,117.8,498.6,109.8,496.4z"/>
		<path class="st2" d="M129.7,504.9c102.7,53.5,202.8,50.1,297.5-17.6c59.3-42.4,94.5-101.3,106.9-174.1c11-64.5-2-123.8-32.1-180.5
			c-1.6-4.7,0.4-5.8,4.7-4.6c86.7,103.3,77.2,264.6-21.4,361.8c-98.6,97.3-257.4,106-360.2,19.8C123.9,505.4,125,503.4,129.7,504.9z
			"/>
		<path class="st3" d="M506.7,128.1c-1.6,1.5-3.1,3.1-4.7,4.6c-6-4.8-8.5-11.3-9.3-18.8C500.1,116,503.4,122,506.7,128.1z"/>
		<path class="st3" d="M129.7,504.9c-1.5,1.6-3.1,3.1-4.6,4.7c-6.5-2.8-11.3-7.7-15.4-13.3C117.9,495.9,124.5,498.7,129.7,504.9z"/>
		<path class="st4" d="M330.3,301c15.6-72,117.6-102.1,157.6-69.1c-15.9,7.4-22.3,18.4-24.7,37.3c-6.3,47.9-56.7,67-93.4,35.2
			C354.6,291.3,342.8,306.2,330.3,301z"/>
		<path class="st4" d="M98.4,231.9c35.8-30,126-8.9,152.7,53.7c1.9,4.4,0.3,10.2,0.4,15.4c-15.1-4.9-26.9-2.5-40.5,8.3
			c-33.1,26.1-82.7,3.8-87.8-40.3C120.9,249.9,114,239.4,98.4,231.9z"/>
		<path class="st5" d="M330.3,301c17.3-14.1,31-15,47.8,4c12.6,14.3,33.2,12.9,50.9,4.4c18.6-8.9,32.9-25.5,29-44.6
			c-6.1-29.4,9.7-31.3,29.9-32.9c15,30.7,6.1,69.1-22.1,94.9c-30.1,27.5-73.8,31.9-108.1,9.6C344.9,328,329.9,320.1,330.3,301z"/>
		<path class="st5" d="M98.4,231.9c5.9,1,11.8,2.6,17.7,3c11.8,1,15.6,4.9,12.7,18.1c-5.2,23.9,6.5,45.9,27.4,55.9
			c20.9,10,43.7,9.6,57.7-8.4c15.6-20.1,25.2-11.7,37.5,0.4c2.2,4.5,5.2,7.9,1.4,14.1c-19.8,32.5-75.5,45.1-113.7,25
			C98.6,318.8,80.1,269.5,98.4,231.9z"/>
		<path class="st4" d="M306.8,386.2c26.7,0.7,53.4,21.6,73.1,53.8c2.7,4.5,6.2,9.6,2,14.4c-5.2,5.9-9.6,0.2-13.5-2.6
			c-50-37-100-37-150.1-0.3c-3.8,2.8-8,8.8-13.5,3.2c-4.7-4.8-0.9-9.6,1.4-14.4C222,408.1,257.9,385.9,306.8,386.2z"/>
		<path class="st6" d="M66.5,187.1c26-77.5,109.7-141.4,174.6-132.4C169.3,85.9,117.1,135.4,66.5,187.1z"/>
	</g>
</g>
</svg>
