<?xml version="1.0" encoding="utf-8"?>
<!-- Generator: Adobe Illustrator 21.1.0, SVG Export Plug-In . SVG Version: 6.00 Build 0)  -->
<svg version="1.1" id="Layer_1" xmlns="http://www.w3.org/2000/svg" xmlns:xlink="http://www.w3.org/1999/xlink" x="0px" y="0px"
	 viewBox="0 0 581 581" style="enable-background:new 0 0 581 581;" xml:space="preserve">
<style type="text/css">
	.st0{fill:#FEFEFE;}
	.st1{fill:#FCC947;}
	.st2{fill:#F8B600;}
	.st3{fill:#F9BC15;}
	.st4{fill:#302C3B;}
	.st5{fill:#312C3B;}
	.st6{fill:#FEE7B9;}
</style>
<g>
	<g>
		<path class="st0" d="M295.5,586.6c-93,0-185.9-0.2-278.9,0.2c-10.6,0-14.3-1.4-14.3-13.5c0.5-186.7,0.5-373.4,0-560
			C2.3,1.9,5.4,0.8,15.4,0.9c186.7,0.3,373.4,0.4,560-0.2c13.4,0,12.9,5.5,12.9,14.9c-0.2,185.9-0.3,371.8,0.2,557.8
			c0,12-3.5,13.6-14.2,13.6C481.4,586.5,388.4,586.6,295.5,586.6z"/>
		<path class="st1" d="M109.7,496.2C28.5,418.9,1.2,324.9,33.3,218.3c32.1-106.8,106.8-171,217.3-190.2
			c84-14.5,157.9,9.5,222.8,63.9c7.6,6.4,13.7,13.7,19.1,21.8c4.4,6.8,9,13.4,13.9,19.8c60.3,92.7,47.7,227.3-29.6,316
			c-77.2,88.6-193.6,119.5-304.5,81.2c-15.2-5.2-28.9-12.9-42-21.9C123.6,504.6,117.7,498.7,109.7,496.2z"/>
		<path class="st2" d="M129.7,505c96,50.3,191.6,51.3,283.3-8.2c87.3-56.6,128.4-139.9,124.7-243.8c-1.5-42.6-14.5-83-35.7-120.3
			c-1.6-4.7,0.4-5.8,4.6-4.6c86.5,104.7,77.1,264.6-21.4,361.7c-98.7,97.3-255.9,106-360.1,19.8C123.9,505.4,125,503.4,129.7,505z"
			/>
		<path class="st3" d="M506.6,128.1c-1.5,1.5-3.1,3-4.6,4.6c-6.1-4.8-8.6-11.4-9.5-18.8C499.9,116,503.4,121.9,506.6,128.1z"/>
		<path class="st3" d="M129.7,505c-1.5,1.5-3,3.1-4.6,4.6c-6.6-2.8-11.3-7.7-15.4-13.4C117.8,495.8,124.5,498.7,129.7,505z"/>
		<path class="st4" d="M284.1,454.9c-41.5-1.8-81.9-21.8-111.2-62.7c-4.2-5.8-11.1-12.4-3.4-19.8c7-6.8,12.6,0.9,17.8,4.2
			c71.2,44.5,142.1,44.2,212.9-0.8c5.2-3.3,11.2-10.3,17.6-2.4c5.6,6.9-0.3,12.6-3.8,18.2C389.8,429.4,340.4,455.1,284.1,454.9z"/>
		<path class="st5" d="M188.8,291.9c-25.7,0-45.9-20.4-45.3-45.9c0.5-23.9,21.4-44.4,45.2-44.5c23.8,0,44.7,20.4,45.3,44.3
			C234.7,271.4,214.6,291.9,188.8,291.9z"/>
		<path class="st5" d="M396.4,291.9c-24.7-0.5-44.1-20.2-44.1-44.9c0-24.8,21.9-46.2,46.4-45.5c23.9,0.7,44.1,21.6,44.1,45.5
			C442.8,272.7,422.3,292.5,396.4,291.9z"/>
		<path class="st6" d="M241.2,54.3c-73.6,33.1-128,83-178.2,143.7C73.1,115.6,179.1,47.4,241.2,54.3z"/>
	</g>
</g>
</svg>
