<?xml version="1.0" encoding="utf-8"?>
<!-- Generator: Adobe Illustrator 21.1.0, SVG Export Plug-In . SVG Version: 6.00 Build 0)  -->
<svg version="1.1" id="Layer_1" xmlns="http://www.w3.org/2000/svg" xmlns:xlink="http://www.w3.org/1999/xlink" x="0px" y="0px"
	 viewBox="0 0 581 581" style="enable-background:new 0 0 581 581;" xml:space="preserve">
<style type="text/css">
	.st0{fill:#FEFEFE;}
	.st1{fill:#FCC947;}
	.st2{fill:#F8B600;}
	.st3{fill:#F9BD16;}
	.st4{fill:#F9BC15;}
	.st5{fill:#312D3B;}
	.st6{fill:#312C3B;}
	.st7{fill:#FEE7B9;}
	.st8{fill:#937725;}
	.st9{fill:none;stroke:#000000;stroke-width:0.3;}
</style>
<g>
	<g>
		<g>
			<g>
				<path class="st0" d="M295.5,586.6c-93,0-185.9-0.2-278.9,0.2c-10.6,0-14.3-1.4-14.3-13.5c0.5-186.7,0.5-373.4,0-560
					C2.3,1.9,5.4,0.8,15.4,0.9c186.7,0.3,373.4,0.4,560-0.2c13.4,0,12.9,5.5,12.9,14.9c-0.2,185.9-0.3,371.8,0.2,557.8
					c0,12-3.5,13.6-14.2,13.6C481.4,586.5,388.4,586.6,295.5,586.6z"/>
				<path class="st1" d="M109.8,496.2C28.5,418.9,1.2,324.9,33.3,218.3C65.4,111.5,140,47.2,250.6,28.1
					c84-14.5,157.9,9.5,222.8,63.9c7.6,6.4,13.7,13.7,19.1,21.8c4.3,6.8,9,13.4,13.8,19.8c59.3,91,46.4,231.7-27.7,314.7
					c-59.4,66.5-133.1,100.8-222.1,98.5c-44.9-1.2-88.4-11-126.2-37.8C123.6,504.6,117.7,498.7,109.8,496.2z"/>
				<path class="st2" d="M129.7,505c98.6,51.8,195.8,50,289.3-11.4c112.1-73.5,151-224.3,91.1-344.7c-2.7-5.4-5.4-10.8-8.1-16.2
					c-1.6-4.7,0.4-5.8,4.7-4.6c86.5,105,77.1,264.6-21.4,361.7c-98.5,97.2-256.9,105.9-360.1,19.8C123.9,505.4,125,503.4,129.7,505z
					"/>
				<path class="st3" d="M506.6,128.1c-1.6,1.5-3.1,3.1-4.7,4.6c-6-4.8-8.6-11.4-9.5-18.9C499.8,116,503.4,121.9,506.6,128.1z"/>
				<path class="st4" d="M129.7,505c-1.5,1.5-3.1,3.1-4.6,4.6c-6.5-2.9-11.6-7.4-15.4-13.4C117.9,495.8,124.5,498.7,129.7,505z"/>
				<path class="st5" d="M437.9,264.5c8.2,1.7,19.7,2.7,30.2,6.4c15.3,5.3,29,13.6,30,32.6c0.9,17.6-6.9,30.7-22.5,38.4
					c-17.2,8.5-33.6,6.1-48.3-6.2c-2.8-2.4-4.7-5.9-7.4-8.4c-7.9-6.9-2.5-23.9-14.9-24.9c-13.1-1.1-26.1,5.6-38.9,10
					c-8.5,2.9-18.2,18.7-26.6,4.5c-7.4-12.5,7.5-19.3,15.4-25.6C378,272.6,405.9,266.8,437.9,264.5z"/>
				<path class="st6" d="M189.4,264.6c7.3,1.4,18,2.3,27.9,5.4c18.2,5.7,33.9,15.5,32.9,37.4c-0.9,19-11.6,32.9-30.3,37.8
					c-20.2,5.2-36.4-2.1-49.3-18.9c-5.9-7.7-1.6-22.8-13.2-23.8c-13.2-1.2-26.1,5.4-38.9,9.8c-8.7,3-18.7,18.5-26.9,5.1
					c-8.4-13.6,7.8-20.8,16.4-27.3C130.9,272.8,158,266.6,189.4,264.6z"/>
				<path class="st6" d="M272.3,486.4c-6.8-0.9-18.7-2.5-30.7-3.8c-14.5-1.6-28.3-4.5-25.5-23.6c2.6-18.1,15.8-20.1,30.6-17.1
					c41.1,8.3,81,1.4,120.1-10.7c13.5-4.2,26.2-11.3,39.2-17.1c5.9-2.6,12.5-9.4,17.9-1.7c4.5,6.5-1.4,12.7-5.7,18
					c-16.1,20-37.7,32.4-61.1,41.3C331.7,481.6,304.8,485.7,272.3,486.4z"/>
				<path class="st7" d="M242.1,54.1c-73,31.4-124.9,81.3-174.7,134.1C80.2,118.3,168.8,49,242.1,54.1z"/>
				<path class="st8" d="M408.6,178.7c24.8,1.8,54.3,9.5,80.2,28.5c5.6,4.1,12.4,7.9,6.4,16.1c-5.3,7.2-11.4,4.9-17.7,0.5
					c-24.9-17.6-52.5-25.8-83.2-23.6c-7.3,0.5-18.5,4.6-19.2-8.7c-0.6-11.9,10.1-11,17.9-12.6C395.8,178.2,398.9,178.7,408.6,178.7z
					"/>
				<path class="st8" d="M182.9,178c1.5,0,3.1-0.3,4.5,0.1c8.8,2.2,24.7-5.7,23.5,11.7c-1.1,16.7-14.9,6.6-23.3,7.1
					c-27.5,1.7-53.6,7.5-76.7,23.7c-5.8,4.1-12.5,11.5-19.4,2.4c-7.8-10.3,1.8-14.4,8.5-19.1C125,186.5,152.7,178.4,182.9,178z"/>
			</g>
		</g>
	</g>
</g>
</svg>
