<?xml version="1.0" encoding="utf-8"?>
<!-- Generator: Adobe Illustrator 21.1.0, SVG Export Plug-In . SVG Version: 6.00 Build 0)  -->
<svg version="1.1" id="Layer_1" xmlns="http://www.w3.org/2000/svg" xmlns:xlink="http://www.w3.org/1999/xlink" x="0px" y="0px"
	 viewBox="0 0 581 581" style="enable-background:new 0 0 581 581;" xml:space="preserve">
<style type="text/css">
	.st0{fill:#FEFEFE;}
	.st1{fill:#FCC947;}
	.st2{fill:#F8B600;}
	.st3{fill:#F9BC11;}
	.st4{fill:#302C3B;}
	.st5{fill:#312D3B;}
	.st6{fill:#FEE7B9;}
	.st7{fill:#FDFDFD;}
	.st8{fill:#1B1626;}
	.st9{fill:#F16B5F;}
	.st10{fill:#2F2B3A;}
</style>
<g>
	<g>
		<path class="st0" d="M295.5,586.6c-93,0-185.9-0.2-278.9,0.2c-10.6,0-14.3-1.4-14.3-13.5c0.5-186.7,0.5-373.4,0-560
			C2.3,1.9,5.4,0.8,15.4,0.9c186.7,0.3,373.4,0.4,560-0.2c13.4,0,12.9,5.5,12.9,14.9c-0.2,185.9-0.3,371.8,0.2,557.8
			c0,12-3.5,13.6-14.2,13.6C481.4,586.5,388.4,586.6,295.5,586.6z"/>
		<path class="st1" d="M109.8,496.2C28.4,418.9,1.2,324.9,33.3,218.3C65.4,111.6,140,47.2,250.6,28.1c84-14.5,158,9.5,222.8,63.9
			c7.6,6.4,13.8,13.7,19.1,21.9c3.3,6.2,8.8,10.8,12.4,16.8c68.9,105,40.3,252.6-42.4,335.2C380,548.2,232.2,577,127.2,507.6
			C121.2,504.2,117,497.8,109.8,496.2z"/>
		<path class="st2" d="M125.2,504.6c34.1,13.9,67.4,28.7,104.8,33.7c78,10.4,147.3-9.5,207.1-58.1
			c69.7-56.7,103.3-132.3,100.7-222.5c-1-35.6-9.5-70-24.7-102.5c-4.1-8.8-7.7-17.9-11.6-26.9c1.6-2,3.3-2,5-0.1
			c86.6,103.7,77.1,264.6-21.4,361.7c-98.6,97.2-256.9,105.9-360.1,19.8c-1.4-1.1-1.9-2.3-1.4-3.4
			C124.3,505.1,124.8,504.6,125.2,504.6z"/>
		<path class="st3" d="M506.6,128.2c-1.7,0-3.3,0-5,0.1c-6.2-2.8-8.8-7.8-9.1-14.3C499.9,116,503.4,121.9,506.6,128.2z"/>
		<path class="st3" d="M125.2,504.6c0,1.7,0,3.3-0.1,5c-6.6-2.8-11.3-7.7-15.3-13.4C116.9,495.4,122.1,498,125.2,504.6z"/>
		<path class="st4" d="M295,314.2c48.4,0.3,96.6,3.5,144.2,12.7c24,4.6,29,12.7,25.7,38.4c-7.8,61.2-51.1,107.8-116.4,123.8
			c-49.1,12-97.7,9.6-144-11.8c-48.2-22.3-75.8-60.9-83.2-113.5c-3.5-25.3,1.8-32.4,27.1-37.2C196.9,317.5,245.8,314.3,295,314.2z"
			/>
		<path class="st5" d="M260.8,247.5c0.6,4.7-0.8,7.9-4.5,10.1c-4.3,2.5-7.2-0.6-9.9-2.8c-34.8-28.5-69.6-28.1-104.6-0.4
			c-3.5,2.7-7,6.4-11.8,2.4c-4-3.4-3.9-7.3-1.9-12.1c8.6-21.2,19-41.3,38.1-55c16.9-12.1,35.1-13.2,52.8-1.6
			C240.9,202.4,251.8,224.7,260.8,247.5z"/>
		<path class="st5" d="M459.6,248.4c0.6,4.2-1.3,7.4-4.9,9.3c-5.3,2.7-8.3-1.8-11.5-4.5c-21.9-18.3-46.6-23.5-74-15.7
			c-11.1,3.2-20.5,9.3-28.9,17c-3.2,2.9-6.9,6.3-11.7,2.1c-4.1-3.6-3.8-7.8-1.9-12.2c2.1-4.8,4.1-9.7,6.6-14.4
			c13.9-25.8,29.1-51,63.5-49.3c24.1,1.2,52.9,32.7,61.1,63.6C458.3,245.7,459,247,459.6,248.4z"/>
		<path class="st6" d="M235.8,54.9c-68.9,31.9-122,82.6-171.4,141.3C71.1,121.3,169.4,50.8,235.8,54.9z"/>
		<path class="st7" d="M265.9,387.6c-32.5-0.3-65-1.4-97.5-0.4c-16.4,0.5-18.5-9.2-20.1-21c-1.7-13.2,7.7-14.3,17.1-15.7
			c85.2-12.1,170.3-12.1,255.5,0c9.4,1.3,18.8,2.5,17.1,15.7c-1.6,11.7-3.7,21.5-20.1,21c-32.5-1-65,0.2-97.5,0.4
			c-5,5-11.4,5-17.8,5.4c-6.3-0.1-12.6-0.1-18.9,0C277.4,392.7,270.9,392.6,265.9,387.6z"/>
		<path class="st8" d="M265.9,387.6c6.1,0,12.1,0,18.2,0.1c13,6.5,7.4,15.6,3.4,24.5c-2.5,5.5-5.4,11.1,1.5,15.7
			c2.7,1.8,5.8,1.8,8.4,0c6.8-4.5,4-10.2,1.5-15.7c-4-8.9-9.7-18,3.4-24.4c6,0,12.1,0,18.1-0.1c7.3,6.4,15.7,12,21.8,19.4
			c12.4,15.3,5.9,33.2-13.2,39.2c-23.9,10.4-47.8,10.4-71.6,0c-19.2-6-25.6-24-13.2-39.2C250.2,399.6,258.6,394,265.9,387.6z"/>
		<path class="st9" d="M257.3,446.3c23.9-2.1,47.8-2.1,71.6,0c9.1,6.5,22.1,3.9,32.8,15.6c-46.4,17.5-90.5,16.7-136.2,0.9
			C233.4,449.1,248.2,453.4,257.3,446.3z"/>
		<path class="st10" d="M302.2,387.7c-7,9-3,16.3,3,24.1c5.5,7.1,7.4,14.8-1.7,21.3c-7,4.9-13.7,5-20.7,0
			c-9.1-6.5-7.2-14.2-1.7-21.3c6-7.7,10-15,3-24.1C290.1,387.7,296.2,387.7,302.2,387.7z"/>
	</g>
</g>
</svg>
