<?xml version="1.0" encoding="utf-8"?>
<!-- Generator: Adobe Illustrator 21.1.0, SVG Export Plug-In . SVG Version: 6.00 Build 0)  -->
<svg version="1.1" id="Layer_1" xmlns="http://www.w3.org/2000/svg" xmlns:xlink="http://www.w3.org/1999/xlink" x="0px" y="0px"
	 viewBox="0 0 581 581" style="enable-background:new 0 0 581 581;" xml:space="preserve">
<style type="text/css">
	.st0{fill:#FEFEFE;}
	.st1{fill:#FCC947;}
	.st2{fill:#F8B600;}
	.st3{fill:#F9BC15;}
	.st4{fill:#F9BC14;}
	.st5{fill:#312C3B;}
	.st6{fill:#FEE7B9;}
	.st7{fill:#947725;}
</style>
<g>
	<g>
		<path class="st0" d="M295.5,586.6c-93,0-185.9-0.2-278.9,0.2c-10.6,0-14.3-1.4-14.3-13.5c0.5-186.7,0.5-373.4,0-560
			C2.3,1.9,5.4,0.8,15.4,0.9c186.7,0.3,373.4,0.4,560-0.2c13.4,0,12.9,5.5,12.9,14.9c-0.2,185.9-0.3,371.8,0.2,557.8
			c0,12-3.5,13.6-14.2,13.6C481.4,586.5,388.4,586.6,295.5,586.6z"/>
		<path class="st1" d="M109.8,496.2C28.5,418.9,1.2,324.9,33.3,218.3C65.4,111.5,140.1,47.2,250.6,28.1c84-14.5,158,9.5,222.8,63.9
			c7.6,6.4,13.8,13.7,19.1,21.8c4.4,6.8,9,13.4,13.9,19.8c59.3,91,46.4,231.7-27.7,314.7c-59.4,66.5-133.1,100.8-222.1,98.5
			c-44.9-1.1-88.4-11-126.2-37.8C123.6,504.6,117.7,498.7,109.8,496.2z"/>
		<path class="st2" d="M129.7,505c97.7,51.3,194.3,50.1,287.4-10.2c113.7-73.7,153.4-224.6,93-345.9c-2.7-5.4-5.4-10.8-8.1-16.2
			c-1.6-4.7,0.4-5.8,4.6-4.6c86.1,103.8,77.5,261.4-19.8,360.1c-97.1,98.5-257,107.9-361.7,21.4C123.9,505.4,125,503.4,129.7,505z"
			/>
		<path class="st3" d="M506.6,128.1c-1.5,1.5-3.1,3-4.6,4.6c-6.1-4.8-8.6-11.4-9.5-18.8C500.1,115.8,503.3,122,506.6,128.1z"/>
		<path class="st4" d="M129.7,505c-1.5,1.5-3,3.1-4.6,4.6c-6.5-2.9-11.5-7.5-15.3-13.4C117.9,495.8,124.5,498.7,129.7,505z"/>
		<path class="st5" d="M187.9,319.1c-24.8-0.4-44.2-19.9-44.4-44.6c-0.2-24.8,21.5-46.3,46.1-45.8c23.9,0.5,44.3,21.3,44.4,45.2
			C234.2,299.6,213.7,319.6,187.9,319.1z"/>
		<path class="st5" d="M398,319.1c-25.8,0.2-46.1-20-45.7-45.5c0.3-23.9,20.9-44.5,44.8-44.9c24.6-0.3,46.1,21.4,45.8,46.1
			C442.5,299.6,422.9,318.9,398,319.1z"/>
		<path class="st5" d="M293.5,380.8c39.7,0.6,67.1,21.8,86.9,55.1c2.7,4.6,5.9,10,0.4,14.1c-4.3,3.2-8.4-0.4-12.1-3.1
			c-50-37.1-100.1-37.5-150.4-0.5c-4.1,3-8.6,8-13.7,2.7c-4.7-4.8-0.6-10,2-14.4C226.3,402.3,253.3,381.6,293.5,380.8z"/>
		<path class="st6" d="M66.9,187.5C88.7,112.1,169.8,49.2,236.4,54.7C169.7,85.9,117.1,135,66.9,187.5z"/>
		<path class="st7" d="M147.2,174.1c25.1,1.8,48.3-8.3,70-22.6c6.9-4.6,13.4-8.6,19,0.5c5.3,8.5-3,12.4-7.9,15.9
			c-28.5,20.4-60.6,29.1-95.4,27.8c-7.8-0.3-19.1,0.6-19-10.7c0.1-12.7,11.1-11.5,20.4-11C137.8,174.3,141.6,174.1,147.2,174.1z"/>
		<path class="st7" d="M441.2,195.9c-31,0-59.3-9.1-84.6-27.2c-5.6-4-12.1-8-6.6-16.2c5.9-8.8,12.1-5.4,19-0.4
			c26.7,19.2,56.2,28.5,89.2,23.1c8.9-1.4,13.2,2.2,14.5,9.8c1.4,8.2-4.8,10.3-11.2,10.7C454.8,196.3,448,195.9,441.2,195.9z"/>
	</g>
</g>
</svg>
